<svg width="24" height="24" viewBox="0 0 24 24" fill="#F15513"  xmlns="http://www.w3.org/2000/svg">
<path fill-rule="evenodd" clip-rule="evenodd" d="M10.8571 2.5C9.22637 2.5 7.92857 3.78171 7.92857 5.33333V5.94444H16.0714V5.33333C16.0714 3.78171 14.7736 2.5 13.1429 2.5H10.8571ZM17.0714 5.94444V5.33333C17.0714 3.20306 15.2992 1.5 13.1429 1.5H10.8571C8.70082 1.5 6.92857 3.20306 6.92857 5.33333V5.94444H6C4.61929 5.94444 3.5 7.06373 3.5 8.44445V20C3.5 21.3807 4.61929 22.5 6 22.5H18C19.3807 22.5 20.5 21.3807 20.5 20V8.44444C20.5 7.06373 19.3807 5.94444 18 5.94444H17.0714ZM16.0714 6.94444V9.77778C16.0714 10.0539 16.2953 10.2778 16.5714 10.2778C16.8476 10.2778 17.0714 10.0539 17.0714 9.77778V6.94444H18C18.8284 6.94444 19.5 7.61602 19.5 8.44444V20C19.5 20.8284 18.8284 21.5 18 21.5H6C5.17157 21.5 4.5 20.8284 4.5 20V8.44445C4.5 7.61602 5.17157 6.94444 6 6.94444H6.92857V9.77778C6.92857 10.0539 7.15243 10.2778 7.42857 10.2778C7.70471 10.2778 7.92857 10.0539 7.92857 9.77778V6.94444H16.0714Z" />
</svg>

