<svg width="16" height="20" viewBox="0 0 18 22" fill="none" xmlns="http://www.w3.org/2000/svg">
<path fill-rule="evenodd" clip-rule="evenodd" d="M4.42857 5.44444H3C1.89543 5.44444 1 6.33988 1 7.44445V19C1 20.1046 1.89543 21 3 21H15C16.1046 21 17 20.1046 17 19V7.44444C17 6.33988 16.1046 5.44444 15 5.44444H13.5714H4.42857Z" fill="white"/>
<path d="M4.42857 8.77778V5.44444M13.5714 8.77778V5.44444M4.42857 5.44444H3C1.89543 5.44444 1 6.33988 1 7.44445V19C1 20.1046 1.89543 21 3 21H15C16.1046 21 17 20.1046 17 19V7.44444C17 6.33988 16.1046 5.44444 15 5.44444H13.5714M4.42857 5.44444V4.33333C4.42857 2.49238 5.9636 1 7.85714 1H10.1429C12.0364 1 13.5714 2.49238 13.5714 4.33333V5.44444M4.42857 5.44444H13.5714" stroke="#F15513" stroke-linecap="round" stroke-linejoin="round"/>
</svg>
