<svg width="25" height="24" viewBox="0 0 25 24" fill="none" xmlns="http://www.w3.org/2000/svg">
<path d="M21.5 16.0013V7.9969C21.4997 7.73492 21.4308 7.47758 21.3001 7.25052C21.1694 7.02345 20.9815 6.83457 20.7552 6.70268L13.6302 2.55612C13.2869 2.35627 12.8968 2.25098 12.4995 2.25098C12.1023 2.25098 11.7122 2.35627 11.3689 2.55612L4.24484 6.70268C4.01848 6.83457 3.83061 7.02345 3.69993 7.25052C3.56925 7.47758 3.50032 7.73492 3.5 7.9969V16.0013C3.50016 16.2634 3.56901 16.5209 3.6997 16.7482C3.83038 16.9754 4.01834 17.1645 4.24484 17.2964L11.3698 21.443C11.7132 21.6426 12.1033 21.7477 12.5005 21.7477C12.8976 21.7477 13.2877 21.6426 13.6311 21.443L20.7561 17.2964C20.9824 17.1643 21.1702 16.9753 21.3007 16.748C21.4312 16.5208 21.4999 16.2633 21.5 16.0013Z" stroke="#F15513" stroke-linecap="round" stroke-linejoin="round"/>
<path d="M3.73438 7.21875L12.5 12.375M12.5 12.375L21.2656 7.21875M12.5 12.375V21.75" stroke="#F15513" stroke-linecap="round" stroke-linejoin="round"/>
</svg>
