<svg width="171" height="35" viewBox="0 0 171 35" fill="none" xmlns="http://www.w3.org/2000/svg">
<path d="M11.8662 26.332C8.33561 26.332 5.63509 25.264 3.76465 23.1279C1.89421 20.9919 0.958984 17.915 0.958984 13.8975C0.958984 13.8421 0.958984 13.7868 0.958984 13.7314C0.958984 11.2965 1.41829 9.13835 2.33691 7.25684C3.25553 5.36426 4.56706 3.91439 6.27148 2.90723C7.97591 1.889 9.92936 1.37988 12.1318 1.37988C12.2093 1.37988 12.2812 1.37988 12.3477 1.37988C14.7272 1.37988 17.0957 1.94987 19.4531 3.08984L17.793 7.27344C15.5462 6.19987 13.7311 5.66309 12.3477 5.66309C10.4108 5.66309 8.91113 6.39355 7.84863 7.85449C6.78613 9.30436 6.25488 11.3298 6.25488 13.9307C6.25488 19.3428 8.28581 22.0488 12.3477 22.0488C14.041 22.0488 16.1051 21.6227 18.54 20.7705V25.0869C16.5479 25.917 14.3232 26.332 11.8662 26.332ZM28.4014 26H23.3379V0.167969H28.4014V26ZM33.5146 2.6582C33.5146 0.998047 34.4333 0.167969 36.2705 0.167969C38.1077 0.167969 39.0264 0.992513 39.0264 2.6416C39.0264 3.43848 38.7939 4.05273 38.3291 4.48438C37.8643 4.91602 37.1781 5.13184 36.2705 5.13184C34.4333 5.13184 33.5146 4.30729 33.5146 2.6582ZM38.7939 26H33.7305V7.43945H38.7939V26ZM51.6602 26.332C45.8828 26.332 42.9941 23.1611 42.9941 16.8193C42.9941 13.6761 43.7799 11.2689 45.3516 9.59766C46.9232 7.92643 49.1755 7.09082 52.1084 7.09082C54.2666 7.09082 56.1868 7.51139 57.8691 8.35254L56.3916 12.2705C54.5986 11.54 53.1709 11.1748 52.1084 11.1748C49.4743 11.1748 48.1572 13.0176 48.1572 16.7031C48.1572 20.3887 49.4743 22.2314 52.1084 22.2314C53.9678 22.2314 55.6999 21.6947 57.3047 20.6211V24.9541C56.4414 25.5075 55.6113 25.8672 54.8145 26.0332C53.9844 26.2324 52.9329 26.332 51.6602 26.332ZM66.6846 26H61.6211V0.167969H66.6846V11.6895L66.4189 15.9062H66.4854L68.6934 13.084L73.8896 7.43945H79.6006L72.2295 15.4912L80.0488 26H74.2051L68.8594 18.4795L66.6846 20.2227V26ZM108.604 1.72852H116.157C119.577 1.72852 122.067 2.22103 123.628 3.20605C125.2 4.19108 125.985 5.74609 125.985 7.87109C125.985 9.3099 125.642 10.4997 124.956 11.4404C124.27 12.3812 123.368 12.9401 122.25 13.1172V13.2832C123.766 13.6152 124.868 14.2516 125.554 15.1924C126.251 16.1221 126.6 17.3783 126.6 18.9609C126.6 21.1745 125.803 22.901 124.209 24.1406C122.615 25.3802 120.44 26 117.685 26H108.604V1.72852ZM113.75 5.94531V11.3408H116.738C118.144 11.3408 119.157 11.125 119.776 10.6934C120.396 10.2617 120.706 9.56999 120.706 8.61816C120.706 7.65527 120.368 6.96908 119.693 6.55957C119.018 6.15007 117.939 5.94531 116.456 5.94531H113.75ZM113.75 15.4248V21.75H117.104C118.52 21.75 119.566 21.4788 120.241 20.9365C120.916 20.3942 121.254 19.5641 121.254 18.4463C121.254 16.432 119.815 15.4248 116.938 15.4248H113.75ZM148.082 26H144.197L143.517 23.626H143.251C142.709 24.4893 141.939 25.1589 140.943 25.6348C139.947 26.0996 138.813 26.332 137.54 26.332C135.371 26.332 133.727 25.751 132.609 24.5889C131.503 23.4268 130.949 21.7445 130.949 19.542V7.43945H136.013V18.2803C136.013 19.6305 136.251 20.6377 136.727 21.3018C137.214 21.9658 137.972 22.2979 139.001 22.2979C140.418 22.2979 141.441 21.8275 142.072 20.8867C142.703 19.946 143.019 18.3743 143.019 16.1719V7.43945H148.082V26ZM154.474 34.168C153.632 34.168 152.775 34.0739 151.9 33.8857V29.8682C152.487 30.012 153.151 30.084 153.893 30.084C155.763 30.084 157.069 28.9827 157.811 26.7803L158.109 25.8672L150.738 7.43945H156.283L159.786 17.8818C160.074 18.7783 160.279 19.8519 160.4 21.1025H160.5C160.611 20.0179 160.849 18.9443 161.214 17.8818L164.65 7.43945H170.079L162.227 28.374C161.507 30.2887 160.483 31.7331 159.155 32.707C157.838 33.681 156.278 34.168 154.474 34.168Z" fill="white"/>
<path d="M97.3809 24.124C95.278 25.596 92.8763 26.332 90.1758 26.332C87.4863 26.332 85.3503 25.7122 83.7676 24.4727C82.196 23.222 81.4102 21.5452 81.4102 19.4424C81.4102 17.9261 81.7422 16.6367 82.4062 15.5742C83.0814 14.5007 84.2324 13.499 85.8594 12.5693C85.0182 11.6064 84.4095 10.6934 84.0332 9.83008C83.668 8.95573 83.4854 8.00944 83.4854 6.99121C83.4854 5.30892 84.1273 3.95312 85.4111 2.92383C86.7061 1.89453 88.4049 1.37988 90.5078 1.37988C92.6217 1.37988 94.293 1.86133 95.5215 2.82422C96.7611 3.76497 97.3809 5.04329 97.3809 6.65918C97.3809 7.9873 96.9935 9.19922 96.2188 10.2949C95.444 11.3796 94.2155 12.4089 92.5332 13.3828L97.248 17.9814C98.0339 16.6865 98.7145 15.0208 99.29 12.9844H104.569C104.171 14.4896 103.623 15.9561 102.926 17.3838C102.229 18.8005 101.437 20.0511 100.552 21.1357L105.549 26H99.29L97.3809 24.124ZM92.6992 7.25684C92.6992 6.62598 92.5 6.14453 92.1016 5.8125C91.7142 5.4694 91.1719 5.29785 90.4746 5.29785C89.7884 5.29785 89.2295 5.47493 88.7979 5.8291C88.3773 6.18327 88.167 6.68685 88.167 7.33984C88.167 8.30273 88.6927 9.3763 89.7441 10.5605C90.7513 10.0072 91.4928 9.47591 91.9688 8.9668C92.4557 8.44661 92.6992 7.87663 92.6992 7.25684ZM86.7393 18.9609C86.7393 19.9128 87.0934 20.6709 87.8018 21.2354C88.5212 21.7998 89.4398 22.082 90.5576 22.082C91.9632 22.082 93.2194 21.7445 94.3262 21.0693L88.8145 15.5908C88.1283 16.1221 87.6081 16.6533 87.2539 17.1846C86.9108 17.7048 86.7393 18.2969 86.7393 18.9609Z" fill="#F15513"/>
</svg>
