<svg width="22" height="20" viewBox="0 0 22 20" fill="#B00101" xmlns="http://www.w3.org/2000/svg">
<path d="M11 18.5C10.9311 18.5 10.8645 18.4796 10.809 18.4425C8.31355 16.7795 5.96425 14.9818 4.24797 12.9274C2.81529 11.2125 1.83583 9.33398 1.57162 7.21471L0.50056 5.94527L3.48053 13.5685L10.2535 19.2741H11.7465L11.0845 18.4895C11.0571 18.4964 11.0287 18.5 11 18.5Z" fill="#B00101" />
<path fill-rule="evenodd" clip-rule="evenodd" d="M0.50056 5.94527C0.470371 8.89146 1.66445 11.3947 3.48053 13.5685C5.29038 15.7349 7.73537 17.5959 10.2535 19.2741C10.4744 19.4215 10.7347 19.5 11 19.5C11.2653 19.5 11.5256 19.4215 11.7465 19.2741H10.2535L3.48053 13.5685L0.50056 5.94527Z" fill="#B00101"/>
<path fill-rule="evenodd" clip-rule="evenodd" d="M0.50056 5.94527C0.53144 2.98802 2.92041 0.5 5.95236 0.5C7.81679 0.5 9.19708 1.40483 10.0931 2.27833C10.4793 2.65484 10.7811 3.0305 11 3.33662C11.2189 3.0305 11.5207 2.65484 11.9069 2.27833C12.8029 1.40483 14.1832 0.5 16.0477 0.5C19.0796 0.5 21.4686 2.98802 21.4995 5.94527C21.5294 8.89144 20.3352 11.3947 18.5191 13.5685C16.7092 15.7349 14.2644 17.5959 11.7465 19.2741L11.0845 18.4895C11.1228 18.4799 11.1591 18.4638 11.1914 18.4422C13.6866 16.7792 16.0354 14.9818 17.7517 12.9274C19.4618 10.8803 20.5263 8.6002 20.4995 5.95571C20.4741 3.52628 18.5113 1.5 16.0477 1.5C14.531 1.5 13.3875 2.23152 12.605 2.99438C12.2145 3.37499 11.9214 3.75673 11.7264 4.04291C11.6292 4.1856 11.5571 4.30342 11.5102 4.38393C11.4867 4.42415 11.4696 4.45496 11.4588 4.47478L11.4474 4.49606L11.4456 4.49961H10.5545L10.5526 4.49606L10.5412 4.47478C10.5304 4.45496 10.5133 4.42415 10.4898 4.38393C10.4429 4.30342 10.3708 4.1856 10.2736 4.04291C10.0786 3.75673 9.78548 3.37499 9.39506 2.99438C8.61253 2.23152 7.46899 1.5 5.95236 1.5C3.48879 1.5 1.52592 3.52633 1.50051 5.95571C1.49611 6.38478 1.52045 6.80426 1.57162 7.21471L0.50056 5.94527Z" />
</svg>
