<svg width="24" height="24" viewBox="0 0 24 24" fill="#343136" xmlns="http://www.w3.org/2000/svg">
<path fill-rule="evenodd" clip-rule="evenodd" d="M11 4.5C7.41015 4.5 4.5 7.41015 4.5 11C4.5 14.5899 7.41015 17.5 11 17.5C14.5899 17.5 17.5 14.5899 17.5 11C17.5 7.41015 14.5899 4.5 11 4.5ZM3.5 11C3.5 6.85786 6.85786 3.5 11 3.5C15.1421 3.5 18.5 6.85786 18.5 11C18.5 12.8911 17.8001 14.6188 16.6451 15.938L21.3536 20.6464C21.5488 20.8417 21.5488 21.1583 21.3536 21.3536C21.1583 21.5488 20.8417 21.5488 20.6464 21.3536L15.938 16.6451C14.6188 17.8001 12.8911 18.5 11 18.5C6.85786 18.5 3.5 15.1421 3.5 11Z"/>
</svg>

