<svg width="40" height="40" viewBox="0 0 40 40" fill="none" xmlns="http://www.w3.org/2000/svg">
<path fill-rule="evenodd" clip-rule="evenodd" d="M0.939198 4.49188C0.000976562 6.29803 0.000976562 8.67091 0.000976562 13.4167V26.5833C0.000976562 31.3291 0.000976562 33.702 0.939198 35.5081C1.72983 37.0301 2.97083 38.2711 4.49286 39.0618C6.29901 40 8.67189 40 13.4176 40H26.5843C31.3301 40 33.7029 40 35.5091 39.0618C37.0311 38.2711 38.2721 37.0301 39.0628 35.5081C40.001 33.702 40.001 31.3291 40.001 26.5833V13.4167C40.001 8.67091 40.001 6.29803 39.0628 4.49188C38.2721 2.96985 37.0311 1.72885 35.5091 0.938221C33.7029 0 31.3301 0 26.5843 0H13.4176C8.67189 0 6.29901 0 4.49286 0.938221C2.97083 1.72885 1.72983 2.96985 0.939198 4.49188ZM5.00098 10.833C5.24457 22.805 11.0909 29.9997 21.3408 29.9997H21.9217V23.1503C23.7296 23.3834 25.4301 24.1577 26.8101 25.3762C28.1901 26.5946 29.1882 28.2029 29.6793 29.9997H35.001C34.4539 27.9311 33.4847 26.0048 32.1571 24.3479C30.8296 22.691 29.174 21.3412 27.2995 20.3876C28.9788 19.3439 30.4296 17.9566 31.5613 16.3126C32.6931 14.6686 33.4813 12.8032 33.8767 10.833H29.0422C27.9929 14.6318 24.8823 18.0853 21.9217 18.4114V10.833H17.0872V24.1096C14.089 23.3422 10.3039 19.6201 10.1353 10.833H5.00098Z" fill="white"/>
</svg>
