<svg width="135" height="40" viewBox="0 0 135 40" fill="none" xmlns="http://www.w3.org/2000/svg">
<path d="M124.25 7.92969e-06H10.7571C10.3434 7.92969e-06 9.93469 7.92975e-06 9.52209 0.00200793C9.1767 0.00400793 8.83407 0.00981793 8.48537 0.0147079C7.72782 0.0226097 6.97206 0.0816842 6.22465 0.191418C5.47829 0.303541 4.75531 0.514924 4.08016 0.818418C3.40583 1.12448 2.78968 1.52218 2.25406 1.99708C1.71563 2.47064 1.2668 3.01802 0.924845 3.61817C0.581941 4.21712 0.344171 4.85895 0.219746 5.52149C0.0941378 6.18319 0.0265469 6.85253 0.0175799 7.52349C0.00711057 7.83009 0.00600497 8.13771 0.000488281 8.44435V31.5586C0.00600497 31.8691 0.00711057 32.1699 0.0175799 32.4805C0.0265497 33.1514 0.0941405 33.8207 0.219746 34.4824C0.343827 35.1453 0.581612 35.7875 0.924845 36.3867C1.26665 36.9849 1.71554 37.5301 2.25406 38.001C2.78765 38.478 3.4042 38.876 4.08016 39.1797C4.7553 39.484 5.4782 39.6967 6.22465 39.8105C6.97219 39.9194 7.72787 39.9785 8.48537 39.9873C8.83407 39.9941 9.1767 39.998 9.52209 39.998C9.93468 40 10.3434 40 10.7571 40H124.25C124.655 40 125.067 40 125.473 39.998C125.817 39.998 126.169 39.9941 126.513 39.9873C127.269 39.9789 128.023 39.9198 128.769 39.8105C129.518 39.6959 130.244 39.4833 130.922 39.1797C131.597 38.8758 132.213 38.4779 132.746 38.001C133.284 37.5282 133.733 36.9835 134.079 36.3867C134.42 35.7871 134.656 35.145 134.778 34.4824C134.904 33.8206 134.974 33.1515 134.987 32.4805C134.992 32.1699 134.992 31.8691 134.992 31.5586C135 31.1953 135 30.834 135 30.4648V9.53614C135 9.16993 135 8.80665 134.992 8.44435C134.992 8.13771 134.992 7.83009 134.987 7.52345C134.974 6.85243 134.904 6.18324 134.778 5.52145C134.655 4.85929 134.42 4.21751 134.079 3.61813C133.383 2.4152 132.279 1.43603 130.922 0.818328C130.244 0.515575 129.518 0.304248 128.769 0.191328C128.023 0.0811107 127.269 0.0220157 126.513 0.0145679C126.169 0.00968793 125.817 0.00382793 125.473 0.00187793C125.067 -0.00012207 124.655 -0.00012207 124.25 -0.00012207V7.92969e-06Z" fill="#343136"/>
<path d="M9.4305 39.1281C9.08618 39.1281 8.75018 39.1241 8.40856 39.1173C7.70086 39.1092 6.99482 39.0547 6.29623 38.9542C5.64482 38.8549 5.01379 38.6702 4.42393 38.4062C3.83949 38.1444 3.30643 37.801 2.84518 37.3894C2.37724 36.9826 1.98767 36.5107 1.69189 35.9926C1.39285 35.4711 1.1859 34.9121 1.07824 34.3351C0.961982 33.715 0.899081 33.0881 0.89008 32.4597C0.882915 32.2487 0.873535 31.5464 0.873535 31.5464V8.44098C0.873535 8.44098 0.883525 7.74942 0.890136 7.54625C0.898754 6.9188 0.96129 6.29284 1.0772 5.67379C1.18506 5.09519 1.39217 4.53457 1.69137 4.01134C1.98606 3.49355 2.37347 3.02137 2.83859 2.6131C3.30318 2.20096 3.83794 1.85587 4.42338 1.59042C5.01188 1.32725 5.64172 1.14385 6.29181 1.04636C6.9927 0.944908 7.70119 0.890056 8.41134 0.882269L9.43105 0.870056H125.57L126.602 0.882759C127.306 0.89016 128.008 0.944522 128.703 1.04538C129.359 1.14409 129.996 1.32877 130.591 1.59335C131.764 2.12831 132.718 2.97466 133.32 4.01378C133.615 4.5334 133.818 5.08944 133.925 5.66305C134.042 6.28718 134.108 6.91806 134.121 7.55065C134.125 7.83391 134.125 8.13817 134.125 8.44098C134.134 8.81606 134.134 9.17306 134.134 9.533V30.466C134.134 30.8294 134.134 31.184 134.125 31.5415C134.125 31.8667 134.125 32.1647 134.12 32.4714C134.107 33.0927 134.042 33.7123 133.927 34.3252C133.822 34.9064 133.616 35.4698 133.317 35.9956C133.019 36.5081 132.632 36.9759 132.169 37.3816C131.707 37.7955 131.173 38.1408 130.588 38.4043C129.994 38.6704 129.359 38.8557 128.703 38.9542C128.004 39.0552 127.298 39.1097 126.59 39.1173C126.259 39.1241 125.913 39.1281 125.576 39.1281L124.351 39.1301L9.4305 39.1281Z" fill="white"/>
<path d="M32.7978 20.3011C32.8086 19.4664 33.0303 18.6481 33.4423 17.9221C33.8543 17.1961 34.4433 16.5862 35.1544 16.149C34.7026 15.5039 34.1067 14.9729 33.4138 14.5984C32.721 14.2238 31.9504 14.016 31.1632 13.9914C29.484 13.8151 27.856 14.9962 27.0003 14.9962C26.128 14.9962 24.8105 14.0089 23.3918 14.038C22.4741 14.0677 21.5798 14.3345 20.7959 14.8126C20.012 15.2907 19.3653 15.9636 18.9189 16.7659C16.9849 20.1143 18.4275 25.0354 20.2801 27.742C21.207 29.0673 22.2903 30.5478 23.7077 30.4953C25.0948 30.4378 25.6128 29.6108 27.2871 29.6108C28.9459 29.6108 29.4319 30.4953 30.8781 30.4619C32.3665 30.4378 33.3042 29.1307 34.1986 27.7928C34.8646 26.8484 35.3771 25.8047 35.717 24.7003C34.8523 24.3345 34.1144 23.7224 33.5953 22.9401C33.0762 22.1578 32.7988 21.24 32.7978 20.3011Z" fill="#343136"/>
<path d="M30.0654 12.2113C30.8769 11.2371 31.2767 9.98487 31.1799 8.72064C29.9401 8.85086 28.7948 9.44342 27.9723 10.3803C27.5702 10.8379 27.2622 11.3704 27.066 11.9471C26.8697 12.5239 26.7891 13.1337 26.8286 13.7416C27.4488 13.748 28.0623 13.6136 28.6229 13.3485C29.1836 13.0834 29.6768 12.6946 30.0654 12.2113Z" fill="#343136"/>
<path d="M50.3306 27.1396H45.5972L44.4604 30.496H42.4556L46.939 18.078H49.022L53.5054 30.496H51.4663L50.3306 27.1396ZM46.0874 25.5907H49.8394L47.9898 20.1435H47.938L46.0874 25.5907Z" fill="#343136"/>
<path d="M63.187 25.9693C63.187 28.7828 61.6812 30.5904 59.4087 30.5904C58.8331 30.6205 58.2606 30.4879 57.7568 30.2078C57.253 29.9276 56.8383 29.5113 56.5601 29.0064H56.5171V33.4908H54.6587V21.442H56.4576V22.9478H56.4917C56.7827 22.4454 57.2044 22.0312 57.712 21.7493C58.2197 21.4675 58.7942 21.3285 59.3745 21.3473C61.6724 21.3473 63.187 23.1637 63.187 25.9693ZM61.2769 25.9693C61.2769 24.1363 60.3296 22.9312 58.8843 22.9312C57.4644 22.9312 56.5093 24.1617 56.5093 25.9693C56.5093 27.7935 57.4644 29.0152 58.8843 29.0152C60.3296 29.0152 61.2769 27.8189 61.2769 25.9693Z" fill="#343136"/>
<path d="M73.1519 25.9693C73.1519 28.7828 71.646 30.5904 69.3736 30.5904C68.7979 30.6205 68.2254 30.4879 67.7216 30.2078C67.2178 29.9276 66.8031 29.5113 66.5249 29.0064H66.4819V33.4908H64.6235V21.442H66.4224V22.9478H66.4565C66.7475 22.4454 67.1692 22.0312 67.6769 21.7493C68.1845 21.4675 68.759 21.3285 69.3394 21.3473C71.6372 21.3473 73.1519 23.1637 73.1519 25.9693ZM71.2417 25.9693C71.2417 24.1363 70.2945 22.9312 68.8491 22.9312C67.4292 22.9312 66.4741 24.1617 66.4741 25.9693C66.4741 27.7935 67.4292 29.0152 68.8491 29.0152C70.2945 29.0152 71.2417 27.8189 71.2417 25.9693H71.2417Z" fill="#343136"/>
<path d="M79.7388 27.0361C79.8765 28.2675 81.0728 29.0761 82.7076 29.0761C84.274 29.0761 85.4009 28.2675 85.4009 27.1571C85.4009 26.1932 84.7212 25.6161 83.1118 25.2206L81.5025 24.8329C79.2222 24.2821 78.1636 23.2157 78.1636 21.4852C78.1636 19.3427 80.0308 17.871 82.6822 17.871C85.3062 17.871 87.105 19.3427 87.1656 21.4852H85.2896C85.1773 20.246 84.1528 19.4979 82.6558 19.4979C81.1587 19.4979 80.1343 20.2548 80.1343 21.3563C80.1343 22.2343 80.7886 22.7509 82.3892 23.1463L83.7573 23.4823C86.3052 24.0848 87.3638 25.1083 87.3638 26.9247C87.3638 29.2479 85.5132 30.703 82.5698 30.703C79.8159 30.703 77.9565 29.2821 77.8364 27.036L79.7388 27.0361Z" fill="#343136"/>
<path d="M91.3755 19.2997V21.4423H93.0972V22.9139H91.3755V27.9051C91.3755 28.6805 91.7202 29.0419 92.477 29.0419C92.6814 29.0383 92.8855 29.024 93.0884 28.9989V30.4618C92.7481 30.5253 92.4022 30.5541 92.0561 30.5477C90.2231 30.5477 89.5083 29.8592 89.5083 28.1034V22.9139H88.1919V21.4423H89.5083V19.2997H91.3755Z" fill="#343136"/>
<path d="M94.0942 25.9696C94.0942 23.121 95.772 21.3309 98.3882 21.3309C101.013 21.3309 102.683 23.1209 102.683 25.9696C102.683 28.826 101.022 30.6083 98.3882 30.6083C95.7553 30.6083 94.0942 28.826 94.0942 25.9696ZM100.79 25.9696C100.79 24.0155 99.894 22.8622 98.3882 22.8622C96.8823 22.8622 95.9878 24.0243 95.9878 25.9696C95.9878 27.9315 96.8823 29.076 98.3882 29.076C99.894 29.076 100.789 27.9315 100.789 25.9696H100.79Z" fill="#343136"/>
<path d="M104.215 21.4419H105.988V22.9829H106.031C106.151 22.5016 106.433 22.0763 106.829 21.7784C107.226 21.4805 107.713 21.3282 108.209 21.3472C108.423 21.3464 108.636 21.3697 108.845 21.4165V23.1548C108.575 23.0722 108.293 23.0342 108.01 23.0425C107.74 23.0315 107.471 23.0791 107.221 23.182C106.971 23.2849 106.747 23.4406 106.563 23.6385C106.379 23.8364 106.24 24.0718 106.155 24.3284C106.071 24.5851 106.043 24.857 106.074 25.1255V30.4956H104.215L104.215 21.4419Z" fill="#343136"/>
<path d="M117.412 27.8368C117.162 29.4803 115.561 30.6083 113.513 30.6083C110.879 30.6083 109.245 28.8436 109.245 26.0126C109.245 23.1727 110.888 21.3309 113.435 21.3309C115.94 21.3309 117.515 23.0516 117.515 25.7967V26.4335H111.121V26.5458C111.091 26.879 111.133 27.2146 111.243 27.5305C111.353 27.8463 111.529 28.1351 111.76 28.3776C111.99 28.6202 112.269 28.811 112.579 28.9373C112.889 29.0636 113.222 29.1225 113.556 29.1102C113.995 29.1514 114.436 29.0497 114.813 28.8202C115.189 28.5908 115.482 28.2459 115.647 27.8368L117.412 27.8368ZM111.129 25.1346H115.656C115.672 24.835 115.627 24.5352 115.522 24.254C115.418 23.9728 115.256 23.7163 115.047 23.5005C114.839 23.2847 114.588 23.1144 114.311 23.0002C114.033 22.886 113.735 22.8303 113.435 22.8368C113.132 22.835 112.832 22.8931 112.552 23.0079C112.272 23.1226 112.018 23.2917 111.803 23.5053C111.589 23.7189 111.419 23.9729 111.303 24.2526C111.188 24.5322 111.129 24.832 111.129 25.1346V25.1346Z" fill="#343136"/>
<path d="M45.855 8.73135C46.2446 8.70339 46.6356 8.76225 46.9997 8.90368C47.3638 9.04512 47.692 9.2656 47.9606 9.54922C48.2291 9.83285 48.4314 10.1725 48.5528 10.5438C48.6742 10.9151 48.7117 11.3087 48.6626 11.6962C48.6626 13.6024 47.6323 14.6982 45.855 14.6982H43.6997V8.73135H45.855ZM44.6265 13.8544H45.7515C46.0299 13.871 46.3085 13.8253 46.567 13.7207C46.8256 13.6161 47.0575 13.4552 47.246 13.2496C47.4345 13.044 47.5748 12.799 47.6566 12.5324C47.7385 12.2658 47.7599 11.9843 47.7192 11.7084C47.7569 11.4335 47.7334 11.1537 47.6503 10.8891C47.5672 10.6244 47.4265 10.3814 47.2385 10.1775C47.0504 9.97355 46.8196 9.81375 46.5625 9.70951C46.3054 9.60527 46.0284 9.55919 45.7515 9.57456H44.6265V13.8544Z" fill="#343136"/>
<path d="M49.7098 12.4447C49.6814 12.1487 49.7153 11.8502 49.8091 11.5681C49.903 11.286 50.0547 11.0267 50.2547 10.8067C50.4546 10.5867 50.6983 10.411 50.9702 10.2907C51.242 10.1704 51.536 10.1083 51.8333 10.1083C52.1306 10.1083 52.4245 10.1704 52.6964 10.2907C52.9682 10.411 53.212 10.5867 53.4119 10.8067C53.6118 11.0267 53.7636 11.286 53.8574 11.5681C53.9513 11.8502 53.9851 12.1487 53.9568 12.4447C53.9857 12.7409 53.9522 13.0399 53.8586 13.3224C53.765 13.6049 53.6134 13.8647 53.4134 14.0851C53.2134 14.3056 52.9695 14.4817 52.6974 14.6022C52.4252 14.7228 52.1309 14.785 51.8333 14.785C51.5357 14.785 51.2413 14.7228 50.9692 14.6022C50.6971 14.4817 50.4532 14.3056 50.2532 14.0851C50.0532 13.8647 49.9015 13.6049 49.8079 13.3224C49.7144 13.0399 49.6809 12.7409 49.7098 12.4447ZM53.0428 12.4447C53.0428 11.4686 52.6043 10.8978 51.8348 10.8978C51.0623 10.8978 50.6278 11.4686 50.6278 12.4447C50.6278 13.4286 51.0623 13.995 51.8348 13.995C52.6043 13.9949 53.0428 13.4246 53.0428 12.4447H53.0428Z" fill="#343136"/>
<path d="M59.602 14.6981H58.6802L57.7495 11.3817H57.6792L56.7524 14.6981H55.8394L54.5981 10.1952H55.4995L56.3062 13.6312H56.3726L57.2983 10.1952H58.1509L59.0767 13.6312H59.147L59.9497 10.1952H60.8384L59.602 14.6981Z" fill="#343136"/>
<path d="M61.8814 10.1947H62.7368V10.9101H62.8032C62.9159 10.6532 63.1059 10.4378 63.3468 10.294C63.5876 10.1502 63.8674 10.0851 64.147 10.1078C64.3661 10.0914 64.5861 10.1244 64.7907 10.2045C64.9953 10.2846 65.1792 10.4097 65.3289 10.5705C65.4786 10.7314 65.5902 10.9238 65.6554 11.1337C65.7206 11.3435 65.7377 11.5653 65.7056 11.7826V14.6976H64.8169V12.0058C64.8169 11.2822 64.5025 10.9223 63.8452 10.9223C63.6965 10.9154 63.548 10.9407 63.4099 10.9965C63.2719 11.0523 63.1475 11.1374 63.0454 11.2457C62.9432 11.3541 62.8658 11.4833 62.8182 11.6244C62.7707 11.7656 62.7543 11.9153 62.77 12.0634V14.6977H61.8813L61.8814 10.1947Z" fill="#343136"/>
<path d="M67.1216 8.43738H68.0103V14.6981H67.1216V8.43738Z" fill="#343136"/>
<path d="M69.2468 12.4447C69.2185 12.1488 69.2524 11.8502 69.3463 11.5681C69.4401 11.2861 69.5919 11.0267 69.7919 10.8067C69.9919 10.5867 70.2356 10.411 70.5075 10.2907C70.7793 10.1704 71.0733 10.1083 71.3706 10.1083C71.6679 10.1083 71.9619 10.1704 72.2338 10.2907C72.5057 10.411 72.7494 10.5867 72.9494 10.8067C73.1493 11.0267 73.3011 11.2861 73.395 11.5681C73.4888 11.8502 73.5227 12.1488 73.4944 12.4447C73.5232 12.741 73.4897 13.04 73.3961 13.3225C73.3025 13.605 73.1508 13.8648 72.9508 14.0852C72.7508 14.3056 72.5069 14.4818 72.2347 14.6023C71.9626 14.7228 71.6683 14.7851 71.3706 14.7851C71.073 14.7851 70.7786 14.7228 70.5065 14.6023C70.2344 14.4818 69.9905 14.3056 69.7905 14.0852C69.5904 13.8648 69.4388 13.605 69.3451 13.3225C69.2515 13.04 69.218 12.741 69.2468 12.4447ZM72.5798 12.4447C72.5798 11.4687 72.1414 10.8979 71.3718 10.8979C70.5994 10.8979 70.1648 11.4687 70.1648 12.4447C70.1648 13.4286 70.5994 13.995 71.3718 13.995C72.1414 13.995 72.5799 13.4247 72.5799 12.4447H72.5798Z" fill="#343136"/>
<path d="M74.4302 13.4247C74.4302 12.6141 75.0337 12.1468 76.105 12.0804L77.3247 12.0101V11.6215C77.3247 11.1459 77.0103 10.8773 76.4028 10.8773C75.9067 10.8773 75.563 11.0594 75.4644 11.3778H74.604C74.6948 10.6044 75.4224 10.1083 76.4438 10.1083C77.5728 10.1083 78.2095 10.6703 78.2095 11.6215V14.6981H77.354V14.0653H77.2837C77.141 14.2923 76.9406 14.4773 76.7029 14.6016C76.4653 14.7258 76.199 14.7847 75.9312 14.7723C75.7421 14.792 75.5511 14.7718 75.3703 14.7131C75.1895 14.6544 75.0231 14.5585 74.8817 14.4315C74.7403 14.3045 74.627 14.1493 74.5492 13.9759C74.4715 13.8025 74.4309 13.6147 74.4302 13.4247ZM77.3247 13.0399V12.6634L76.2251 12.7338C75.605 12.7753 75.3237 12.9862 75.3237 13.3832C75.3237 13.7884 75.6753 14.0243 76.1587 14.0243C76.3004 14.0386 76.4434 14.0243 76.5795 13.9822C76.7155 13.9401 76.8416 13.8711 76.9504 13.7793C77.0592 13.6874 77.1484 13.5746 77.2127 13.4476C77.277 13.3206 77.3151 13.1819 77.3247 13.0399Z" fill="#343136"/>
<path d="M79.3774 12.4447C79.3774 11.0219 80.1089 10.1205 81.2466 10.1205C81.528 10.1075 81.8073 10.1749 82.0518 10.3148C82.2963 10.4547 82.496 10.6613 82.6274 10.9105H82.6939V8.43738H83.5825V14.6981H82.731V13.9867H82.6607C82.5191 14.2342 82.3124 14.4382 82.0632 14.5767C81.8139 14.7152 81.5315 14.7828 81.2466 14.7723C80.1011 14.7724 79.3774 13.871 79.3774 12.4447ZM80.2954 12.4447C80.2954 13.3998 80.7456 13.9745 81.4986 13.9745C82.2476 13.9745 82.7105 13.3915 82.7105 12.4486C82.7105 11.5101 82.2427 10.9188 81.4986 10.9188C80.7505 10.9188 80.2954 11.4974 80.2954 12.4447H80.2954Z" fill="#343136"/>
<path d="M87.2586 12.4447C87.2303 12.1487 87.2641 11.8502 87.358 11.5681C87.4518 11.286 87.6036 11.0267 87.8035 10.8067C88.0034 10.5867 88.2472 10.411 88.519 10.2907C88.7909 10.1704 89.0848 10.1083 89.3821 10.1083C89.6794 10.1083 89.9734 10.1704 90.2452 10.2907C90.5171 10.411 90.7608 10.5867 90.9607 10.8067C91.1607 11.0267 91.3124 11.286 91.4063 11.5681C91.5001 11.8502 91.534 12.1487 91.5056 12.4447C91.5345 12.7409 91.501 13.0399 91.4075 13.3224C91.3139 13.6049 91.1622 13.8647 90.9622 14.0851C90.7622 14.3056 90.5183 14.4817 90.2462 14.6022C89.9741 14.7228 89.6797 14.785 89.3821 14.785C89.0845 14.785 88.7902 14.7228 88.518 14.6022C88.2459 14.4817 88.002 14.3056 87.802 14.0851C87.602 13.8647 87.4504 13.6049 87.3568 13.3224C87.2632 13.0399 87.2297 12.7409 87.2586 12.4447ZM90.5916 12.4447C90.5916 11.4686 90.1531 10.8978 89.3836 10.8978C88.6111 10.8978 88.1766 11.4686 88.1766 12.4447C88.1766 13.4286 88.6112 13.995 89.3836 13.995C90.1531 13.9949 90.5916 13.4246 90.5916 12.4447Z" fill="#343136"/>
<path d="M92.6978 10.1947H93.5532V10.9101H93.6196C93.7323 10.6532 93.9223 10.4378 94.1632 10.294C94.404 10.1502 94.6838 10.0851 94.9634 10.1078C95.1825 10.0914 95.4025 10.1244 95.6071 10.2045C95.8117 10.2846 95.9956 10.4097 96.1453 10.5705C96.295 10.7314 96.4066 10.9238 96.4718 11.1337C96.537 11.3435 96.5541 11.5653 96.522 11.7826V14.6976H95.6333V12.0058C95.6333 11.2822 95.3189 10.9223 94.6616 10.9223C94.5129 10.9154 94.3644 10.9407 94.2263 10.9965C94.0883 11.0523 93.9639 11.1374 93.8618 11.2457C93.7597 11.3541 93.6822 11.4833 93.6346 11.6244C93.5871 11.7656 93.5707 11.9153 93.5864 12.0634V14.6977H92.6978V10.1947Z" fill="#343136"/>
<path d="M101.544 9.0741V10.2157H102.52V10.9642H101.544V13.2797C101.544 13.7513 101.739 13.9579 102.181 13.9579C102.294 13.9575 102.408 13.9507 102.52 13.9374V14.6776C102.36 14.7062 102.199 14.7213 102.037 14.723C101.048 14.723 100.655 14.3754 100.655 13.5072V10.9642H99.9399V10.2157H100.655V9.0741H101.544Z" fill="#343136"/>
<path d="M103.733 8.43738H104.614V10.9188H104.684C104.802 10.6595 104.997 10.4429 105.243 10.2986C105.489 10.1542 105.773 10.0891 106.057 10.1122C106.275 10.1003 106.493 10.1367 106.695 10.2188C106.897 10.3008 107.079 10.4265 107.227 10.5868C107.375 10.7471 107.486 10.9382 107.552 11.1463C107.618 11.3545 107.637 11.5746 107.608 11.7909V14.6981H106.718V12.0101C106.718 11.2909 106.383 10.9266 105.755 10.9266C105.603 10.9141 105.449 10.9351 105.305 10.9882C105.161 11.0412 105.031 11.125 104.923 11.2338C104.815 11.3425 104.732 11.4735 104.68 11.6177C104.628 11.7618 104.608 11.9156 104.622 12.0682V14.6981H103.733L103.733 8.43738Z" fill="#343136"/>
<path d="M112.789 13.4824C112.668 13.8939 112.407 14.2499 112.05 14.488C111.693 14.7262 111.264 14.8313 110.838 14.7851C110.541 14.7929 110.247 14.7361 109.974 14.6186C109.702 14.5011 109.458 14.3256 109.26 14.1045C109.062 13.8834 108.915 13.6218 108.828 13.338C108.741 13.0542 108.717 12.7549 108.758 12.4609C108.718 12.166 108.743 11.8661 108.829 11.5814C108.916 11.2967 109.062 11.034 109.259 10.8109C109.456 10.5878 109.699 10.4096 109.97 10.2884C110.242 10.1672 110.537 10.1058 110.834 10.1084C112.087 10.1084 112.843 10.9644 112.843 12.3784V12.6884H109.663V12.7382C109.649 12.9035 109.67 13.0698 109.724 13.2266C109.778 13.3833 109.865 13.527 109.978 13.6485C110.09 13.7699 110.227 13.8665 110.38 13.9319C110.532 13.9973 110.697 14.0301 110.862 14.0282C111.075 14.0538 111.29 14.0155 111.481 13.9183C111.672 13.8211 111.829 13.6693 111.934 13.4823L112.789 13.4824ZM109.663 12.0312H111.938C111.949 11.8801 111.928 11.7283 111.877 11.5856C111.826 11.4428 111.746 11.3124 111.642 11.2025C111.537 11.0926 111.411 11.0058 111.271 10.9477C111.131 10.8895 110.981 10.8612 110.829 10.8647C110.676 10.8628 110.523 10.8916 110.381 10.9496C110.238 11.0075 110.109 11.0934 110 11.2021C109.892 11.3108 109.806 11.4402 109.748 11.5826C109.69 11.725 109.661 11.8775 109.663 12.0312H109.663Z" fill="#343136"/>
</svg>
