<svg width="18" height="22" viewBox="0 0 18 22" fill="none" xmlns="http://www.w3.org/2000/svg">
<path fill-rule="evenodd" clip-rule="evenodd" d="M7.85714 1.5C6.22637 1.5 4.92857 2.78171 4.92857 4.33333V4.94444H13.0714V4.33333C13.0714 2.78171 11.7736 1.5 10.1429 1.5H7.85714ZM14.0714 4.94444V4.33333C14.0714 2.20306 12.2992 0.5 10.1429 0.5H7.85714C5.70082 0.5 3.92857 2.20306 3.92857 4.33333V4.94444H3C1.61929 4.94444 0.5 6.06373 0.5 7.44445V19C0.5 20.3807 1.61929 21.5 3 21.5H15C16.3807 21.5 17.5 20.3807 17.5 19V7.44444C17.5 6.06373 16.3807 4.94444 15 4.94444H14.0714ZM13.0714 5.94444V8.77778C13.0714 9.05392 13.2953 9.27778 13.5714 9.27778C13.8476 9.27778 14.0714 9.05392 14.0714 8.77778V5.94444H15C15.8284 5.94444 16.5 6.61602 16.5 7.44444V19C16.5 19.8284 15.8284 20.5 15 20.5H3C2.17157 20.5 1.5 19.8284 1.5 19V7.44445C1.5 6.61602 2.17157 5.94444 3 5.94444H3.92857V8.77778C3.92857 9.05392 4.15243 9.27778 4.42857 9.27778C4.70471 9.27778 4.92857 9.05392 4.92857 8.77778V5.94444H13.0714Z" fill="#343136"/>
</svg>
