<svg width="24" height="24" viewBox="0 0 24 24" fill="none" xmlns="http://www.w3.org/2000/svg">
<path fill-rule="evenodd" clip-rule="evenodd" d="M3.1875 2.75C2.94588 2.75 2.75 2.94588 2.75 3.1875V9.5625C2.75 9.80412 2.94588 10 3.1875 10H9.5625C9.80412 10 10 9.80412 10 9.5625V3.1875C10 2.94588 9.80412 2.75 9.5625 2.75H3.1875ZM1.75 3.1875C1.75 2.39359 2.39359 1.75 3.1875 1.75H9.5625C10.3564 1.75 11 2.39359 11 3.1875V9.5625C11 10.3564 10.3564 11 9.5625 11H3.1875C2.39359 11 1.75 10.3564 1.75 9.5625V3.1875Z" fill="white"/>
<path fill-rule="evenodd" clip-rule="evenodd" d="M14.4375 2.75C14.1959 2.75 14 2.94588 14 3.1875V9.5625C14 9.80412 14.1959 10 14.4375 10H20.8125C21.0541 10 21.25 9.80412 21.25 9.5625V3.1875C21.25 2.94588 21.0541 2.75 20.8125 2.75H14.4375ZM13 3.1875C13 2.39359 13.6436 1.75 14.4375 1.75H20.8125C21.6064 1.75 22.25 2.39359 22.25 3.1875V9.5625C22.25 10.3564 21.6064 11 20.8125 11H14.4375C13.6436 11 13 10.3564 13 9.5625V3.1875Z" fill="white"/>
<path fill-rule="evenodd" clip-rule="evenodd" d="M3.1875 14C2.94588 14 2.75 14.1959 2.75 14.4375V20.8125C2.75 21.0541 2.94588 21.25 3.1875 21.25H9.5625C9.80412 21.25 10 21.0541 10 20.8125V14.4375C10 14.1959 9.80412 14 9.5625 14H3.1875ZM1.75 14.4375C1.75 13.6436 2.39359 13 3.1875 13H9.5625C10.3564 13 11 13.6436 11 14.4375V20.8125C11 21.6064 10.3564 22.25 9.5625 22.25H3.1875C2.39359 22.25 1.75 21.6064 1.75 20.8125V14.4375Z" fill="white"/>
<path fill-rule="evenodd" clip-rule="evenodd" d="M14.4375 14C14.1959 14 14 14.1959 14 14.4375V20.8125C14 21.0541 14.1959 21.25 14.4375 21.25H20.8125C21.0541 21.25 21.25 21.0541 21.25 20.8125V14.4375C21.25 14.1959 21.0541 14 20.8125 14H14.4375ZM13 14.4375C13 13.6436 13.6436 13 14.4375 13H20.8125C21.6064 13 22.25 13.6436 22.25 14.4375V20.8125C22.25 21.6064 21.6064 22.25 20.8125 22.25H14.4375C13.6436 22.25 13 21.6064 13 20.8125V14.4375Z" fill="white"/>
</svg>
