<svg width="20" height="20" viewBox="0 0 20 20" fill="none" xmlns="http://www.w3.org/2000/svg">
<path fill-rule="evenodd" clip-rule="evenodd" d="M8 1.5C7.17157 1.5 6.5 2.17157 6.5 3V3.5H13.5V3C13.5 2.17157 12.8284 1.5 12 1.5H8ZM14.5 3.5V3C14.5 1.61929 13.3807 0.5 12 0.5H8C6.61929 0.5 5.5 1.61929 5.5 3V3.5H0.5V4.5H2.5V17C2.5 18.3807 3.61929 19.5 5 19.5H15C16.3807 19.5 17.5 18.3807 17.5 17V4.5H19.5V3.5H14.5ZM16.5 4.5H3.5V17C3.5 17.8284 4.17157 18.5 5 18.5H15C15.8284 18.5 16.5 17.8284 16.5 17V4.5Z" fill="#343136"/>
</svg>
