<svg width="25" height="24" viewBox="0 0 25 24" fill="#F15513" xmlns="http://www.w3.org/2000/svg">
<path fill-rule="evenodd" clip-rule="evenodd" d="M11.1174 2.12399C11.537 1.87968 12.0139 1.75098 12.4995 1.75098C12.9851 1.75098 13.462 1.87968 13.8817 2.12397C13.8817 2.12399 13.8816 2.12396 13.8817 2.12397L21.0067 6.27054C21.3085 6.44639 21.5592 6.69836 21.7334 7.00112C21.9077 7.30387 21.9996 7.64698 22 7.99629V16.0013C21.9999 16.3507 21.9083 16.6941 21.7343 16.9971C21.5603 17.3 21.3099 17.5521 21.0081 17.7283L13.8826 21.8751C13.4782 22.1102 13.0205 22.2382 12.5533 22.2472C12.5358 22.249 12.518 22.25 12.5 22.25C12.4819 22.25 12.464 22.249 12.4464 22.2472C11.9797 22.238 11.5227 22.1102 11.1186 21.8753L3.99335 17.7286C3.69135 17.5526 3.44051 17.3004 3.26626 16.9975C3.09201 16.6945 3.00021 16.3511 3 16.0016L3 7.9969C3.00043 7.64759 3.09233 7.30387 3.26657 7.00112C3.44081 6.69836 3.69131 6.44652 3.99313 6.27067L11.1174 2.12399C11.1174 2.12398 11.1174 2.124 11.1174 2.12399ZM13 21.1749C13.1321 21.1355 13.2597 21.0806 13.3798 21.0107L20.5041 16.8646C20.5042 16.8645 20.5039 16.8647 20.5041 16.8646C20.6547 16.7766 20.7802 16.6503 20.8671 16.499C20.9541 16.3475 20.9999 16.1759 21 16.0013C21 16.0012 21 16.0013 21 16.0013V7.99751C21 7.98353 20.9997 7.96957 20.9991 7.95564L13 12.661V21.1749ZM12.5 11.7949L20.4627 7.11098L13.3787 2.98826C13.1118 2.83288 12.8084 2.75098 12.4995 2.75098C12.1907 2.75098 11.8874 2.83284 11.6205 2.98822L4.53732 7.11098L12.5 11.7949ZM4.00093 7.95564C4.00033 7.96948 4.00002 7.98335 4 7.99725L4 16.001C4.0001 16.1757 4.04601 16.3474 4.13313 16.4989C4.22021 16.6503 4.34544 16.7763 4.49634 16.8643M4.49634 16.8643L11.6211 21.0107C11.741 21.0804 11.8682 21.1353 12 21.1746V12.661L4.00093 7.95564" />
</svg>






