<svg width="18" height="18" viewBox="0 0 18 18" fill="none" xmlns="http://www.w3.org/2000/svg">
<path fill-rule="evenodd" clip-rule="evenodd" d="M11.2322 1.0606C12.2085 0.0842927 13.7915 0.0842903 14.7678 1.0606L16.9393 3.23218C17.9156 4.20849 17.9156 5.7914 16.9393 6.76771L6.93934 16.7677C6.4705 17.2366 5.83461 17.4999 5.17157 17.4999H1C0.723858 17.4999 0.5 17.2761 0.5 16.9999V12.8284C0.5 12.1653 0.763391 11.5294 1.23223 11.0606L11.2322 1.0606ZM14.0607 1.76771C13.4749 1.18192 12.5251 1.18192 11.9393 1.76771L10.7071 2.99994L15 7.29284L16.2322 6.0606C16.818 5.47482 16.818 4.52507 16.2322 3.93928L14.0607 1.76771ZM14.2929 7.99994L10 3.70705L1.93934 11.7677C1.65803 12.049 1.5 12.4305 1.5 12.8284V14.2928L3.70711 16.4999H5.17157C5.5694 16.4999 5.95093 16.3419 6.23223 16.0606L14.2929 7.99994ZM2.29289 16.4999L1.5 15.7071V16.4999H2.29289Z" fill="#343136"/>
</svg>
