<svg width="25" height="24" viewBox="0 0 25 24" fill="#F15513" xmlns="http://www.w3.org/2000/svg">
<path d="M12.5 20.5C12.4311 20.5 12.3645 20.4796 12.309 20.4425C9.81355 18.7795 7.46425 16.9818 5.74797 14.9274C4.31529 13.2125 3.33583 11.334 3.07162 9.21471L2.00056 7.94527L4.98053 15.5685L11.7535 21.2741H13.2465L12.5845 20.4895C12.5571 20.4964 12.5287 20.5 12.5 20.5Z"/>
<path fill-rule="evenodd" clip-rule="evenodd" d="M2.00056 7.94527C1.97037 10.8915 3.16445 13.3947 4.98053 15.5685C6.79038 17.7349 9.23537 19.5959 11.7535 21.2741C11.9744 21.4215 12.2347 21.5 12.5 21.5C12.7653 21.5 13.0256 21.4215 13.2465 21.2741H11.7535L4.98053 15.5685L2.00056 7.94527Z"/>
<path fill-rule="evenodd" clip-rule="evenodd" d="M2.00056 7.94527C2.03144 4.98802 4.42041 2.5 7.45236 2.5C9.31679 2.5 10.6971 3.40483 11.5931 4.27833C11.9793 4.65484 12.2811 5.0305 12.5 5.33662C12.7189 5.0305 13.0207 4.65484 13.4069 4.27833C14.3029 3.40483 15.6832 2.5 17.5477 2.5C20.5796 2.5 22.9686 4.98802 22.9995 7.94527C23.0294 10.8914 21.8352 13.3947 20.0191 15.5685C18.2092 17.7349 15.7644 19.5959 13.2465 21.2741L12.5845 20.4895C12.6228 20.4799 12.6591 20.4638 12.6914 20.4422C15.1866 18.7792 17.5354 16.9818 19.2517 14.9274C20.9618 12.8803 22.0263 10.6002 21.9995 7.95571C21.9741 5.52628 20.0113 3.5 17.5477 3.5C16.031 3.5 14.8875 4.23152 14.105 4.99438C13.7145 5.37499 13.4214 5.75673 13.2264 6.04291C13.1292 6.1856 13.0571 6.30342 13.0102 6.38393C12.9867 6.42415 12.9696 6.45496 12.9588 6.47478L12.9474 6.49606L12.9456 6.49961H12.0545L12.0526 6.49606L12.0412 6.47478C12.0304 6.45496 12.0133 6.42415 11.9898 6.38393C11.9429 6.30342 11.8708 6.1856 11.7736 6.04291C11.5786 5.75673 11.2855 5.37499 10.8951 4.99438C10.1125 4.23152 8.96899 3.5 7.45236 3.5C4.98879 3.5 3.02592 5.52633 3.00051 7.95571C2.99611 8.38478 3.02045 8.80426 3.07162 9.21471L2.00056 7.94527Z" />
</svg>






