<svg width="135" height="40" viewBox="0 0 135 40" fill="none" xmlns="http://www.w3.org/2000/svg">
<g clip-path="url(#clip0_103_3110)">
<path d="M130 0H5.00095C2.23954 0 0.000976562 2.23856 0.000976562 4.99998V34.9998C0.000976562 37.7612 2.23954 39.9998 5.00095 39.9998H130C132.762 39.9998 135 37.7612 135 34.9998V4.99998C135 2.23856 132.762 0 130 0Z" fill="white"/>
<path d="M130 0.80001C131.114 0.801296 132.181 1.24424 132.969 2.03165C133.756 2.81907 134.199 3.88665 134.2 5.00019V35C134.199 36.1136 133.756 37.1811 132.969 37.9686C132.181 38.756 131.114 39.1989 130 39.2002H5.00095C3.88741 39.1989 2.81984 38.756 2.03247 37.9686C1.24509 37.1812 0.802203 36.1136 0.800973 35V5.00019C0.802185 3.88664 1.24506 2.81904 2.03244 2.03162C2.81983 1.24421 3.8874 0.801275 5.00095 0.80001H130ZM130 0.000213623H5.00095C3.67607 0.0040917 2.40656 0.532119 1.46972 1.46896C0.532881 2.40579 0.00485464 3.67531 0.000976563 5.00019L0.000976562 35C0.00485464 36.3249 0.532881 37.5944 1.46972 38.5313C2.40656 39.4681 3.67607 39.9961 5.00095 40H130C131.325 39.9961 132.595 39.4681 133.532 38.5313C134.468 37.5944 134.996 36.3249 135 35V5.00019C134.996 3.67531 134.468 2.40579 133.532 1.46896C132.595 0.532119 131.325 0.0040917 130 0.000213623V0.000213623Z" fill="#343136"/>
<path d="M47.4192 10.2428C47.4374 10.6098 47.3807 10.9766 47.2526 11.3209C47.1245 11.6652 46.9276 11.9799 46.674 12.2457C46.3898 12.5405 46.0466 12.7719 45.6668 12.9249C45.2869 13.0779 44.8791 13.1489 44.4699 13.1334C44.0582 13.1371 43.6498 13.0584 43.2689 12.9021C42.8879 12.7457 42.5421 12.5147 42.2517 12.2227C41.9613 11.9308 41.7322 11.5837 41.5778 11.2019C41.4234 10.8202 41.347 10.4114 41.3529 9.99963C41.347 9.58787 41.4235 9.17909 41.5779 8.79731C41.7323 8.41553 41.9614 8.06845 42.2517 7.77646C42.5421 7.48447 42.8879 7.25346 43.2689 7.097C43.6498 6.94053 44.0581 6.86178 44.4699 6.86535C44.8933 6.86407 45.3125 6.94967 45.7014 7.11685C46.0627 7.26329 46.3843 7.49299 46.6399 7.78725L46.1125 8.31504C45.9116 8.0785 45.6589 7.89128 45.3741 7.76785C45.0893 7.64442 44.78 7.58807 44.4699 7.60315C44.1579 7.60153 43.8487 7.66292 43.5609 7.78363C43.2731 7.90434 43.0126 8.08189 42.7951 8.30565C42.5775 8.52941 42.4074 8.79477 42.2948 9.08585C42.1822 9.37692 42.1296 9.68772 42.1399 9.99963C42.1325 10.4668 42.264 10.9257 42.5177 11.3181C42.7714 11.7105 43.1359 12.0187 43.565 12.2036C43.9941 12.3886 44.4684 12.4419 44.9279 12.3569C45.3873 12.272 45.8112 12.0524 46.1457 11.7262C46.4536 11.3945 46.6321 10.9631 46.6486 10.5108H44.4699V9.79014H47.3772C47.4047 9.93948 47.4188 10.091 47.4192 10.2428Z" fill="#343136" stroke="white" stroke-width="0.2" stroke-miterlimit="10"/>
<path d="M52.0292 7.7373H49.2969V9.63959H51.7608V10.3604H49.2969V12.2627H52.0292V13H48.5264V7H52.0292V7.7373Z" fill="#343136" stroke="white" stroke-width="0.2" stroke-miterlimit="10"/>
<path d="M55.2803 13H54.5088V7.7373H52.833V7H56.9561V7.7373H55.2803V13Z" fill="#343136" stroke="white" stroke-width="0.2" stroke-miterlimit="10"/>
<path d="M59.9385 13V7.00006H60.709V13H59.9385Z" fill="#343136" stroke="white" stroke-width="0.2" stroke-miterlimit="10"/>
<path d="M64.1298 13H63.3583V7.7373H61.6826V7H65.8056V7.7373H64.1298V13Z" fill="#343136" stroke="white" stroke-width="0.2" stroke-miterlimit="10"/>
<path d="M73.6091 12.2251C73.0251 12.8073 72.2341 13.1343 71.4095 13.1343C70.5848 13.1343 69.7938 12.8073 69.2098 12.2251C68.9209 11.9325 68.6937 11.5847 68.5419 11.2026C68.3901 10.8204 68.3167 10.4116 68.326 10.0005C68.3167 9.58938 68.3901 9.18059 68.5419 8.79843C68.6937 8.41626 68.9209 8.06853 69.2098 7.77591C69.4984 7.48717 69.8412 7.25821 70.2185 7.10211C70.5957 6.94601 71 6.86585 71.4083 6.86621C71.8166 6.86657 72.2208 6.94745 72.5978 7.10422C72.9747 7.26099 73.3171 7.49056 73.6052 7.77981C73.8944 8.07166 74.1219 8.41862 74.2744 8.80008C74.4269 9.18155 74.5012 9.58976 74.4929 10.0005C74.502 10.4116 74.4285 10.8203 74.2767 11.2024C74.1248 11.5845 73.8978 11.9323 73.6091 12.2251V12.2251ZM69.7791 11.7227C70.2116 12.1545 70.7978 12.397 71.409 12.397C72.0201 12.397 72.6063 12.1545 73.0389 11.7227C73.2607 11.4956 73.4341 11.2259 73.5488 10.9299C73.6634 10.6339 73.7168 10.3177 73.7058 10.0005C73.7168 9.68326 73.6634 9.36708 73.5488 9.07108C73.4341 8.77507 73.2607 8.50538 73.0389 8.2783C72.6063 7.84651 72.0201 7.604 71.409 7.604C70.7978 7.604 70.2116 7.84651 69.7791 8.2783C69.5576 8.50556 69.3844 8.77531 69.2699 9.07129C69.1555 9.36726 69.1021 9.68335 69.1131 10.0005C69.1021 10.3176 69.1555 10.6337 69.2699 10.9297C69.3844 11.2257 69.5576 11.4954 69.7791 11.7227V11.7227Z" fill="#343136" stroke="white" stroke-width="0.2" stroke-miterlimit="10"/>
<path d="M75.5752 13V7H76.5137L79.4297 11.6675H79.4629L79.4297 10.5112V7H80.2012V13H79.3965L76.3457 8.10639H76.3125L76.3457 9.26269V13H75.5752Z" fill="#343136" stroke="white" stroke-width="0.2" stroke-miterlimit="10"/>
<path d="M68.1362 21.7519C67.2957 21.7551 66.475 22.0073 65.7777 22.4765C65.0804 22.9458 64.5378 23.6112 64.2183 24.3886C63.8989 25.1661 63.817 26.0207 63.9829 26.8447C64.1488 27.6687 64.5552 28.425 65.1506 29.0182C65.7461 29.6114 66.504 30.0149 67.3286 30.1777C68.1531 30.3405 69.0075 30.2553 69.7837 29.9329C70.5599 29.6105 71.2232 29.0654 71.6899 28.3663C72.1565 27.6672 72.4055 26.8455 72.4055 26.005C72.4138 25.4428 72.3089 24.8847 72.097 24.3639C71.8852 23.8431 71.5708 23.3703 71.1725 22.9734C70.7741 22.5766 70.3001 22.264 69.7785 22.0542C69.2569 21.8443 68.6984 21.7415 68.1362 21.7519V21.7519ZM68.1362 28.5827C67.6186 28.6196 67.1019 28.4998 66.6533 28.2389C66.2047 27.978 65.845 27.5881 65.6211 27.12C65.3973 26.6518 65.3195 26.1271 65.398 25.6142C65.4765 25.1012 65.7076 24.6237 66.0613 24.244C66.4149 23.8642 66.8747 23.5997 67.3808 23.4849C67.8869 23.3701 68.4158 23.4103 68.8987 23.6004C69.3816 23.7904 69.7961 24.1214 70.0882 24.5503C70.3804 24.9792 70.5366 25.4861 70.5366 26.005C70.5523 26.3328 70.5023 26.6605 70.3894 26.9687C70.2766 27.2769 70.1032 27.5594 69.8796 27.7996C69.6559 28.0398 69.3864 28.2329 69.087 28.3673C68.7876 28.5018 68.4644 28.575 68.1362 28.5827V28.5827ZM58.8229 21.7519C57.9824 21.7551 57.1616 22.0072 56.4643 22.4765C55.767 22.9458 55.2244 23.6111 54.9049 24.3886C54.5854 25.166 54.5035 26.0207 54.6694 26.8446C54.8353 27.6686 55.2417 28.425 55.8371 29.0182C56.4326 29.6114 57.1905 30.0149 58.0151 30.1777C58.8397 30.3405 59.694 30.2553 60.4702 29.9329C61.2465 29.6105 61.9098 29.0654 62.3764 28.3663C62.843 27.6672 63.0921 26.8455 63.092 26.005C63.1003 25.4428 62.9954 24.8848 62.7836 24.364C62.5718 23.8432 62.2573 23.3703 61.859 22.9735C61.4607 22.5767 60.9867 22.264 60.4651 22.0542C59.9435 21.8443 59.385 21.7415 58.8229 21.7519V21.7519ZM58.8229 28.5827C58.3052 28.6196 57.7885 28.4998 57.3399 28.2389C56.8913 27.978 56.5317 27.5881 56.3078 27.12C56.0839 26.6518 56.0061 26.1271 56.0846 25.6142C56.1631 25.1012 56.3943 24.6237 56.7479 24.244C57.1016 23.8642 57.5614 23.5997 58.0674 23.4849C58.5735 23.3701 59.1024 23.4103 59.5853 23.6004C60.0682 23.7904 60.4827 24.1214 60.7749 24.5503C61.067 24.9792 61.2232 25.4861 61.2233 26.005C61.239 26.3328 61.1889 26.6605 61.0761 26.9687C60.9633 27.2769 60.7899 27.5595 60.5662 27.7997C60.3426 28.0399 60.0731 28.2329 59.7737 28.3674C59.4743 28.5018 59.151 28.5751 58.8229 28.5827ZM47.7441 23.0569V24.8612H52.0618C51.9995 25.7075 51.6532 26.508 51.079 27.1328C50.6463 27.5738 50.126 27.9193 49.5516 28.1468C48.9772 28.3743 48.3614 28.4789 47.7441 28.4538C46.4821 28.4367 45.2776 27.9234 44.3912 27.0249C43.5048 26.1264 43.0078 24.915 43.0078 23.6529C43.0078 22.3908 43.5048 21.1794 44.3912 20.2809C45.2776 19.3825 46.4821 18.8691 47.7441 18.852C48.9563 18.8362 50.1258 19.2993 50.9985 20.1408L52.2712 18.8681C51.6758 18.2787 50.9686 17.814 50.1912 17.5014C49.4139 17.1888 48.5819 17.0345 47.7441 17.0476C46.8686 17.0349 45.9993 17.1963 45.1868 17.5226C44.3742 17.8488 43.6346 18.3333 43.011 18.9479C42.3873 19.5625 41.8921 20.295 41.5541 21.1027C41.2161 21.9105 41.042 22.7773 41.042 23.6529C41.042 24.5285 41.2161 25.3954 41.5541 26.2031C41.8921 27.0108 42.3873 27.7433 43.011 28.3579C43.6346 28.9725 44.3742 29.457 45.1868 29.7833C45.9993 30.1095 46.8686 30.2709 47.7441 30.2582C48.5996 30.2937 49.4528 30.1468 50.2472 29.8274C51.0416 29.508 51.7589 29.0233 52.3517 28.4055C53.4041 27.2568 53.9651 25.7417 53.9145 24.1846C53.9186 23.8065 53.8862 23.4288 53.8177 23.0569H47.7441ZM93.0522 24.4584C92.7966 23.6881 92.31 23.015 91.6586 22.5308C91.0072 22.0466 90.2226 21.7747 89.4112 21.7519C88.8648 21.7553 88.3247 21.8695 87.8236 22.0875C87.3225 22.3056 86.8708 22.6229 86.4959 23.0205C86.1209 23.418 85.8305 23.8875 85.6421 24.4005C85.4537 24.9134 85.3713 25.4593 85.3998 26.005C85.3875 26.5642 85.488 27.1201 85.6954 27.6396C85.9027 28.159 86.2127 28.6314 86.6066 29.0284C87.0006 29.4254 87.4706 29.7389 87.9885 29.9502C88.5063 30.1615 89.0615 30.2662 89.6207 30.2582C90.3214 30.2621 91.012 30.0919 91.6306 29.7629C92.2492 29.4339 92.7764 28.9564 93.1649 28.3733L91.715 27.4067C91.4978 27.7674 91.1905 28.0655 90.8234 28.2717C90.4562 28.4778 90.0418 28.585 89.6207 28.5827C89.1874 28.5993 88.7591 28.4853 88.3914 28.2554C88.0237 28.0256 87.7335 27.6906 87.5585 27.2939L93.2456 24.9418L93.0522 24.4584ZM87.2525 25.8762C87.2325 25.5667 87.2744 25.2562 87.3758 24.963C87.4772 24.6699 87.6361 24.3999 87.8431 24.1689C88.0501 23.9378 88.3011 23.7504 88.5814 23.6176C88.8617 23.4847 89.1657 23.4091 89.4756 23.3952C89.7983 23.374 90.1201 23.4482 90.4009 23.6087C90.6816 23.7691 90.909 24.0086 91.0545 24.2974L87.2525 25.8762ZM82.6288 30.0004H84.4975V17.4988H82.6288V30.0004ZM79.5678 22.7024H79.5034C79.2192 22.3937 78.8725 22.1493 78.4863 21.9853C78.1001 21.8214 77.6834 21.7419 77.264 21.7519C76.1673 21.7986 75.131 22.2671 74.3715 23.0596C73.612 23.8521 73.188 24.9074 73.188 26.0051C73.188 27.1027 73.612 28.158 74.3715 28.9505C75.131 29.743 76.1673 30.2115 77.264 30.2582C77.6851 30.2694 78.1035 30.1887 78.4902 30.0218C78.877 29.8549 79.2227 29.6057 79.5034 29.2916H79.5678V29.9038C79.5678 31.531 78.6979 32.4009 77.2962 32.4009C76.829 32.3897 76.3758 32.2397 75.9942 31.97C75.6127 31.7003 75.32 31.3231 75.1536 30.8865L73.5264 31.5632C73.8331 32.3098 74.3557 32.9479 75.0273 33.3957C75.699 33.8434 76.489 34.0805 77.2962 34.0764C79.4873 34.0764 81.34 32.7876 81.34 29.646V22.0096H79.5678V22.7024ZM77.4252 28.5827C76.7792 28.5279 76.1774 28.2326 75.7388 27.7553C75.3002 27.2779 75.0569 26.6533 75.0569 26.0051C75.0569 25.3568 75.3002 24.7322 75.7388 24.2548C76.1774 23.7775 76.7792 23.4822 77.4252 23.4274C77.7465 23.4431 78.0614 23.5233 78.3511 23.6633C78.6408 23.8033 78.8993 24.0002 79.1113 24.2422C79.3233 24.4843 79.4844 24.7665 79.5849 25.0721C79.6855 25.3778 79.7235 25.7005 79.6967 26.0211C79.7218 26.3397 79.6824 26.6602 79.5808 26.9632C79.4793 27.2663 79.3176 27.5457 79.1056 27.7849C78.8935 28.024 78.6354 28.2179 78.3467 28.355C78.0579 28.4921 77.7445 28.5695 77.4252 28.5827V28.5827ZM101.806 17.499H97.3349V30.0004H99.2006V25.264H101.806C102.334 25.2929 102.862 25.214 103.358 25.0319C103.854 24.8499 104.308 24.5686 104.692 24.2052C105.076 23.8419 105.382 23.4041 105.591 22.9186C105.799 22.4331 105.907 21.9101 105.907 21.3815C105.907 20.853 105.799 20.33 105.591 19.8445C105.382 19.359 105.076 18.9212 104.692 18.5578C104.308 18.1945 103.854 17.9132 103.358 17.7311C102.862 17.5491 102.334 17.4701 101.806 17.499V17.499ZM101.854 23.5242H99.2006V19.2389H101.854C102.139 19.233 102.423 19.2841 102.688 19.3891C102.953 19.4941 103.195 19.651 103.398 19.8506C103.602 20.0501 103.764 20.2883 103.874 20.5512C103.985 20.8141 104.042 21.0964 104.042 21.3816C104.042 21.6668 103.985 21.9491 103.874 22.212C103.764 22.4748 103.602 22.713 103.398 22.9126C103.195 23.1121 102.953 23.269 102.688 23.3741C102.423 23.4791 102.139 23.5301 101.854 23.5242V23.5242ZM113.386 21.7289C112.705 21.6892 112.027 21.8491 111.436 22.1891C110.844 22.5291 110.365 23.0343 110.057 23.6428L111.713 24.3344C111.877 24.0324 112.126 23.7848 112.429 23.622C112.732 23.4591 113.075 23.3881 113.418 23.4176C113.891 23.3714 114.364 23.5148 114.731 23.8162C115.099 24.1177 115.333 24.5527 115.38 25.0259V25.1546C114.781 24.8363 114.113 24.6706 113.434 24.6721C111.649 24.6721 109.832 25.6532 109.832 27.4867C109.849 27.8731 109.944 28.2521 110.11 28.6012C110.277 28.9502 110.512 29.2623 110.801 29.5188C111.091 29.7753 111.429 29.971 111.796 30.0944C112.162 30.2178 112.55 30.2662 112.936 30.2369C113.405 30.2645 113.874 30.1657 114.293 29.9508C114.711 29.7358 115.065 29.4125 115.316 29.0146H115.38V29.9796H117.181V25.1868C117.181 22.9673 115.525 21.7289 113.386 21.7289V21.7289ZM113.161 28.5803C112.55 28.5803 111.697 28.2748 111.697 27.5188C111.697 26.5539 112.759 26.1839 113.675 26.1839C114.271 26.168 114.86 26.3125 115.38 26.6021C115.312 27.1443 115.049 27.6434 114.641 28.0071C114.233 28.3707 113.707 28.5744 113.161 28.5803V28.5803ZM123.743 22.0023L121.604 27.4223H121.54L119.321 22.0023H117.31L120.639 29.5775L118.742 33.7913H120.688L125.818 22.0023H123.743ZM106.937 30.0004H108.802V17.499H106.937V30.0004Z" fill="#343136"/>
<path d="M10.4362 7.53842C10.1082 7.93049 9.94267 8.43311 9.97336 8.94331V31.0593C9.94258 31.5695 10.1082 32.0722 10.4362 32.4642L10.5102 32.5363L22.8991 20.1475V19.8552L10.5102 7.46582L10.4362 7.53842Z" fill="url(#paint0_linear_103_3110)"/>
<path d="M27.0288 24.2785L22.8994 20.1471V19.8548L27.0298 15.7245L27.1229 15.7776L32.0157 18.5576C33.4133 19.3516 33.4133 20.6508 32.0157 21.4453L27.1229 24.2254L27.0288 24.2785Z" fill="url(#paint1_linear_103_3110)"/>
<path d="M27.1229 24.2249L22.8995 20.001L10.4365 32.4638C10.7213 32.715 11.0849 32.8586 11.4645 32.8698C11.844 32.881 12.2155 32.7591 12.5146 32.5252L27.1229 24.2249Z" fill="url(#paint2_linear_103_3110)"/>
<path d="M27.1229 15.7775L12.5146 7.47714C12.2155 7.24324 11.844 7.12133 11.4645 7.13255C11.0849 7.14376 10.7213 7.28739 10.4365 7.53854L22.8995 20.0015L27.1229 15.7775Z" fill="url(#paint3_linear_103_3110)"/>
<path opacity="0.2" d="M27.0298 24.1318L12.5146 32.3791C12.227 32.598 11.876 32.7175 11.5146 32.7194C11.1532 32.7213 10.8009 32.6056 10.511 32.3898L10.4365 32.4643L10.5105 32.5364L10.511 32.5359C10.8009 32.7519 11.1531 32.8676 11.5146 32.8657C11.8761 32.8638 12.2271 32.7442 12.5146 32.5252L27.1229 24.2248L27.0298 24.1318Z" fill="#343136"/>
<path opacity="0.12" d="M10.4361 32.318C10.1083 31.9259 9.94269 31.4233 9.97334 30.9131V31.0592C9.94267 31.5694 10.1082 32.072 10.4361 32.4641L10.5106 32.3896L10.4361 32.318Z" fill="#343136"/>
<path opacity="0.12" d="M32.0161 21.2983L27.0303 24.1315L27.1234 24.2245L32.0161 21.4444C32.304 21.3195 32.553 21.1197 32.7374 20.8658C32.9218 20.612 33.0347 20.3133 33.0644 20.001C33.0026 20.2838 32.8756 20.5483 32.6936 20.7735C32.5117 20.9987 32.2797 21.1784 32.0161 21.2983V21.2983Z" fill="#343136"/>
<path opacity="0.25" d="M12.5145 7.62325L32.0156 18.7032C32.2793 18.823 32.5113 19.0028 32.6933 19.2281C32.8753 19.4534 33.0022 19.718 33.0639 20.001C33.0344 19.6885 32.9215 19.3897 32.7371 19.1357C32.5527 18.8818 32.3036 18.6819 32.0156 18.5571L12.5145 7.47715C11.1169 6.68305 9.97363 7.34265 9.97363 8.94344V9.08954C9.97363 7.48885 11.1169 6.82925 12.5145 7.62325Z" fill="white"/>
</g>
<defs>
<linearGradient id="paint0_linear_103_3110" x1="21.8004" y1="8.71012" x2="5.01811" y2="25.4925" gradientUnits="userSpaceOnUse">
<stop stop-color="#00A0FF"/>
<stop offset="0.00657" stop-color="#00A1FF"/>
<stop offset="0.2601" stop-color="#00BEFF"/>
<stop offset="0.5122" stop-color="#00D2FF"/>
<stop offset="0.7604" stop-color="#00DFFF"/>
<stop offset="1" stop-color="#00E3FF"/>
</linearGradient>
<linearGradient id="paint1_linear_103_3110" x1="33.8353" y1="20.0015" x2="9.63856" y2="20.0015" gradientUnits="userSpaceOnUse">
<stop stop-color="#FFE000"/>
<stop offset="0.4087" stop-color="#FFBD00"/>
<stop offset="0.7754" stop-color="#FFA500"/>
<stop offset="1" stop-color="#FF9C00"/>
</linearGradient>
<linearGradient id="paint2_linear_103_3110" x1="24.828" y1="22.2961" x2="2.06983" y2="45.0542" gradientUnits="userSpaceOnUse">
<stop stop-color="#FF3A44"/>
<stop offset="1" stop-color="#C31162"/>
</linearGradient>
<linearGradient id="paint3_linear_103_3110" x1="7.29847" y1="0.17676" x2="17.4609" y2="10.3392" gradientUnits="userSpaceOnUse">
<stop stop-color="#32A071"/>
<stop offset="0.0685" stop-color="#2DA771"/>
<stop offset="0.4762" stop-color="#15CF74"/>
<stop offset="0.8009" stop-color="#06E775"/>
<stop offset="1" stop-color="#00F076"/>
</linearGradient>
<clipPath id="clip0_103_3110">
<rect width="134.999" height="40" fill="white" transform="translate(0.000976562)"/>
</clipPath>
</defs>
</svg>
