<svg width="24" height="25" viewBox="0 0 24 25" fill="none" xmlns="http://www.w3.org/2000/svg">
<path d="M21 12.5C21 17.4706 16.9706 21.5 12 21.5C7.02944 21.5 3 17.4706 3 12.5C3 7.52944 7.02944 3.5 12 3.5C16.9706 3.5 21 7.52944 21 12.5Z" stroke="#343136" stroke-linecap="round" stroke-linejoin="round"/>
<path d="M9.375 9.98221C9.375 9.98221 9.41438 9.1619 10.2923 8.45549C10.8131 8.03596 11.4375 7.91455 12 7.90612C12.5123 7.89955 12.9698 7.9844 13.2436 8.11471C13.7123 8.33784 14.625 8.88252 14.625 10.0408C14.625 11.2596 13.8281 11.8131 12.9202 12.4221C12.0122 13.031 11.7656 13.6919 11.7656 14.3749" stroke="#343136" stroke-miterlimit="10" stroke-linecap="round"/>
<path d="M12.1562 16.8125C12.1562 17.0541 11.9604 17.25 11.7188 17.25C11.4771 17.25 11.2812 17.0541 11.2812 16.8125C11.2812 16.5709 11.4771 16.375 11.7188 16.375C11.9604 16.375 12.1562 16.5709 12.1562 16.8125Z" fill="black" stroke="#343136"/>
</svg>
