<svg width="15" height="18" viewBox="0 0 15 18" fill="none" xmlns="http://www.w3.org/2000/svg">
<path fill-rule="evenodd" clip-rule="evenodd" d="M7.5 0.992739C3.91015 0.992739 1 3.88176 1 7.44554C1 8.03388 1.19446 8.75126 1.54928 9.55708C1.90141 10.3568 2.39638 11.2101 2.96194 12.061C4.09306 13.7625 5.48034 15.4151 6.49331 16.5506C7.03649 17.1595 7.96351 17.1595 8.50669 16.5506C9.51966 15.4151 10.9069 13.7625 12.0381 12.061C12.6036 11.2101 13.0986 10.3568 13.4507 9.55708C13.8055 8.75126 14 8.03388 14 7.44554C14 3.88176 11.0899 0.992739 7.5 0.992739ZM0 7.44554C0 3.33348 3.35786 0 7.5 0C11.6421 0 15 3.33348 15 7.44554C15 8.22941 14.747 9.09159 14.367 9.9547C13.9843 10.8239 13.4569 11.7289 12.8727 12.6077C11.7042 14.3655 10.282 16.0578 9.25532 17.2088C8.31419 18.2637 6.68581 18.2637 5.74468 17.2088C4.71797 16.0578 3.29576 14.3655 2.1273 12.6077C1.54307 11.7289 1.01573 10.8239 0.632996 9.9547C0.252952 9.09159 0 8.22941 0 7.44554ZM7.5 4.9637C6.11929 4.9637 5 6.07486 5 7.44554C5 8.81623 6.11929 9.92739 7.5 9.92739C8.88071 9.92739 10 8.81623 10 7.44554C10 6.07486 8.88071 4.9637 7.5 4.9637ZM4 7.44554C4 5.52658 5.567 3.97096 7.5 3.97096C9.433 3.97096 11 5.52658 11 7.44554C11 9.3645 9.433 10.9201 7.5 10.9201C5.567 10.9201 4 9.3645 4 7.44554Z" fill="#FFFFFF"/>
</svg>
