<svg width="24" height="24" viewBox="0 0 24 24" fill="#F15513" xmlns="http://www.w3.org/2000/svg">
<path fill-rule="evenodd" clip-rule="evenodd" d="M12 3.5C10.067 3.5 8.5 5.067 8.5 7C8.5 8.933 10.067 10.5 12 10.5C13.933 10.5 15.5 8.933 15.5 7C15.5 5.067 13.933 3.5 12 3.5ZM7.5 7C7.5 4.51472 9.51472 2.5 12 2.5C14.4853 2.5 16.5 4.51472 16.5 7C16.5 9.48528 14.4853 11.5 12 11.5C9.51472 11.5 7.5 9.48528 7.5 7ZM4.96038 17.2064C4.61704 17.5108 4.5 17.7801 4.5 18C4.5 18.2199 4.61704 18.4892 4.96038 18.7936C5.30314 19.0975 5.82765 19.394 6.51871 19.6532C7.89713 20.1701 9.83494 20.5 12 20.5C14.1651 20.5 16.1029 20.1701 17.4813 19.6532C18.1723 19.394 18.6969 19.0975 19.0396 18.7936C19.383 18.4892 19.5 18.2199 19.5 18C19.5 17.7801 19.383 17.5108 19.0396 17.2064C18.6969 16.9025 18.1723 16.606 17.4813 16.3468C16.1029 15.8299 14.1651 15.5 12 15.5C9.83494 15.5 7.89713 15.8299 6.51871 16.3468C5.82765 16.606 5.30314 16.9025 4.96038 17.2064ZM6.16758 15.4105C7.68459 14.8416 9.74678 14.5 12 14.5C14.2532 14.5 16.3154 14.8416 17.8324 15.4105C18.5891 15.6943 19.2361 16.0442 19.703 16.4581C20.1693 16.8716 20.5 17.3914 20.5 18C20.5 18.6086 20.1693 19.1284 19.703 19.5419C19.2361 19.9558 18.5891 20.3057 17.8324 20.5895C16.3154 21.1584 14.2532 21.5 12 21.5C9.74678 21.5 7.68459 21.1584 6.16758 20.5895C5.41092 20.3057 4.76386 19.9558 4.29698 19.5419C3.83068 19.1284 3.5 18.6086 3.5 18C3.5 17.3914 3.83068 16.8716 4.29698 16.4581C4.76386 16.0442 5.41092 15.6943 6.16758 15.4105Z"/>
</svg>
