<svg width="16" height="16" viewBox="0 0 16 16" fill="none" xmlns="http://www.w3.org/2000/svg">
<path fill-rule="evenodd" clip-rule="evenodd" d="M2.86667 1.5C2.5042 1.5 2.15659 1.64399 1.90029 1.90029C1.64399 2.15659 1.5 2.5042 1.5 2.86667V13.1333C1.5 13.4958 1.64399 13.8434 1.90029 14.0997C2.15659 14.356 2.5042 14.5 2.86667 14.5H13.1333C13.4958 14.5 13.8434 14.356 14.0997 14.0997C14.356 13.8434 14.5 13.4958 14.5 13.1333V10.3333C14.5 10.0572 14.7239 9.83333 15 9.83333C15.2761 9.83333 15.5 10.0572 15.5 10.3333V13.1333C15.5 13.761 15.2507 14.363 14.8068 14.8068C14.363 15.2507 13.761 15.5 13.1333 15.5H2.86667C2.23899 15.5 1.63702 15.2507 1.19318 14.8068C0.749344 14.363 0.5 13.761 0.5 13.1333V2.86667C0.5 2.23899 0.749344 1.63702 1.19318 1.19318C1.63702 0.749344 2.23899 0.5 2.86667 0.5H5.66667C5.94281 0.5 6.16667 0.723858 6.16667 1C6.16667 1.27614 5.94281 1.5 5.66667 1.5H2.86667ZM9.49394 1C9.49394 0.723858 9.7178 0.5 9.99394 0.5H15C15.2761 0.5 15.5 0.723858 15.5 1V6.00606C15.5 6.2822 15.2761 6.50606 15 6.50606C14.7239 6.50606 14.5 6.2822 14.5 6.00606V2.20711L7.88689 8.82022C7.69162 9.01548 7.37504 9.01548 7.17978 8.82022C6.98452 8.62496 6.98452 8.30838 7.17978 8.11311L13.7929 1.5H9.99394C9.7178 1.5 9.49394 1.27614 9.49394 1Z" fill="#343136"/>
</svg>
