<svg width="40" height="40" viewBox="0 0 40 40" fill="none" xmlns="http://www.w3.org/2000/svg">
<path fill-rule="evenodd" clip-rule="evenodd" d="M0.939198 4.49188C0.000976562 6.29803 0.000976562 8.67091 0.000976562 13.4167V26.5833C0.000976562 31.3291 0.000976562 33.702 0.939198 35.5081C1.72983 37.0301 2.97083 38.2711 4.49286 39.0618C6.29901 40 8.67189 40 13.4176 40H26.5843C31.3301 40 33.7029 40 35.5091 39.0618C37.0311 38.2711 38.2721 37.0301 39.0628 35.5081C40.001 33.702 40.001 31.3291 40.001 26.5833V13.4167C40.001 8.67091 40.001 6.29803 39.0628 4.49188C38.2721 2.96985 37.0311 1.72885 35.5091 0.938221C33.7029 0 31.3301 0 26.5843 0H13.4176C8.67189 0 6.29901 0 4.49286 0.938221C2.97083 1.72885 1.72983 2.96985 0.939198 4.49188ZM6.46154 18.6433L30.5434 9.35487C31.6433 8.85568 32.7049 9.61923 32.285 11.3026L28.1841 30.6279C27.8978 32.0013 27.0677 32.3299 25.9181 31.6956L19.6706 27.0797L19.5544 27.1927C18.1345 28.5733 16.8833 29.7898 16.6678 30.0007L16.6447 30.0232C16.3073 30.3532 16.0286 30.6256 15.4176 30.6256C14.7832 30.6256 14.7303 30.4379 14.6028 29.9859C14.5676 29.8609 14.5266 29.7157 14.4661 29.5486L12.168 22.5029L6.16196 20.6283C4.82767 20.2195 4.81792 19.3027 6.46154 18.6433ZM26.6484 13.5311L13.1106 22.0722L15.3919 29.066L15.8432 24.252L27.4351 13.7933C27.9439 13.3416 27.3242 13.1213 26.6484 13.5311Z" fill="white"/>
</svg>
