<svg width="40" height="40" viewBox="0 0 40 40" fill="none" xmlns="http://www.w3.org/2000/svg">
<path fill-rule="evenodd" clip-rule="evenodd" d="M0.939198 4.49188C0.000976562 6.29803 0.000976562 8.67091 0.000976562 13.4167V26.5833C0.000976562 31.3291 0.000976562 33.702 0.939198 35.5081C1.72983 37.0301 2.97083 38.2711 4.49286 39.0618C6.29901 40 8.67189 40 13.4176 40H26.5843C31.3301 40 33.7029 40 35.5091 39.0618C37.0311 38.2711 38.2721 37.0301 39.0628 35.5081C40.001 33.702 40.001 31.3291 40.001 26.5833V13.4167C40.001 8.67091 40.001 6.29803 39.0628 4.49188C38.2721 2.96985 37.0311 1.72885 35.5091 0.938221C33.7029 0 31.3301 0 26.5843 0H13.4176C8.67189 0 6.29901 0 4.49286 0.938221C2.97083 1.72885 1.72983 2.96985 0.939198 4.49188ZM34.3831 12.4536C34.0371 11.1686 33.0239 10.1555 31.7389 9.80949C29.3913 9.16699 20.0009 9.16699 20.0009 9.16699C20.0009 9.16699 10.6105 9.16699 8.26291 9.78478C7.00262 10.1307 5.96473 11.1686 5.61877 12.4536C5.00098 14.8012 5.00098 19.6694 5.00098 19.6694C5.00098 19.6694 5.00098 24.5623 5.61877 26.8852C5.96473 28.1702 6.9779 29.1834 8.26291 29.5293C10.6352 30.1718 20.0009 30.1718 20.0009 30.1718C20.0009 30.1718 29.3913 30.1718 31.7389 29.5541C33.0239 29.2081 34.0371 28.1949 34.3831 26.9099C35.0008 24.5623 35.0008 19.6941 35.0008 19.6941C35.0008 19.6941 35.0256 14.8012 34.3831 12.4536ZM17.0108 23.9953L24.8197 19.4978L17.0108 15.0003V23.9953Z" fill="white"/>
</svg>
